<?xml version="1.0" encoding="UTF-8"?>
<svg width="24" height="24" viewBox="0 0 24 24" fill="none" xmlns="http://www.w3.org/2000/svg">
  <path d="M18.71 19.5c-.83 1.24-1.71 2.45-3.05 2.47-1.34.03-1.77-.79-3.29-.79-1.53 0-2 .77-3.27.82-1.31.05-2.3-1.32-3.14-2.53C4.25 17 2.94 12.45 4.7 9.39c.87-1.52 2.37-2.49 4.02-2.51 1.27-.02 2.47.87 3.27.87.79 0 2.26-1.03 3.81-.89.61.03 2.39.25 3.54 1.88-.09.07-.21.14-.32.21-2.58 1.55-2.73 4.59-.48 5.9-.38.83-.79 1.66-1.23 2.45z" fill="#A6A6A6"/>
  <path d="M15.56 4.32c-.68.79-1.61 1.37-2.54 1.29.02-.15.05-.3.05-.46 0-1.07-.43-2.07-1.15-2.82-.73-.75-1.73-1.17-2.76-1.17-.03.18-.05.36-.05.55 0 1.12.44 2.16 1.17 2.94.73.78 1.74 1.22 2.77 1.22.02-.14.04-.28.04-.43 0-.99-.37-1.91-1.01-2.62z" fill="#A6A6A6"/>
</svg>