<?xml version="1.0" encoding="UTF-8"?>
<svg width="24" height="24" viewBox="0 0 24 24" fill="none" xmlns="http://www.w3.org/2000/svg">
  <path d="M23.745 12.27c0-.79-.07-1.54-.19-2.27h-11.3v4.51h6.47c-.29 1.48-1.14 2.73-2.4 3.58v3h3.86c2.26-2.09 3.56-5.17 3.56-8.82z" fill="#4285F4"/>
  <path d="M12.255 24c3.24 0 5.95-1.08 7.93-2.91l-3.86-3c-1.08.72-2.45 1.14-4.07 1.14-3.13 0-5.78-2.11-6.73-4.95h-3.99v3.08c1.97 3.92 6.03 6.64 10.72 6.64z" fill="#34A853"/>
  <path d="M5.525 14.29c-.25-.72-.38-1.49-.38-2.29s.14-1.57.38-2.29V6.63h-3.99c-.83 1.64-1.3 3.48-1.3 5.37 0 1.89.47 3.73 1.3 5.37l3.99-3.08z" fill="#FBBC05"/>
  <path d="M12.255 4.75c1.77 0 3.35.61 4.6 1.8l3.42-3.42c-2.2-2.04-5.1-3.3-8.02-3.3-4.69 0-8.75 2.72-10.72 6.64l3.99 3.08c.95-2.84 3.6-4.95 6.73-4.95z" fill="#EA4335"/>
</svg>